<svg width="213" height="110" viewBox="0 0 213 110" fill="none" xmlns="http://www.w3.org/2000/svg">
<path d="M35 13V23C35 24.3261 34.4732 24.5979 33.5355 25.5355C32.5979 24.4732 34.5 26 33.5 26L33 26C32.7348 26 32.4804 24.8946 32.2929 24.7071C34.1054 24.5196 35 23.5 34.5 24.5C34.5 24.2348 32.1054 25.4804 32.2929 25.2929C32.4804 25.1054 37 25 32 25L33.5 25.1581C34.2956 25.1581 33.5587 24.6839 34.1213 24.1213C34.6839 23.5587 33 23.7956 33 23H30C29.2044 23 28.4413 22.6839 27.8787 22.1213C27.3161 21.5587 27 20.7956 27 20V15C27 14.2043 27.3161 13.4413 27.8787 12.8787C28.4413 12.3161 29.2044 12 30 12H32.9562C32.767 9.92117 31.9902 7.9391 30.7165 6.28531C29.4428 4.63151 27.7248 3.37426 25.7633 2.66041C23.8017 1.94657 12.6775 1.80559 10.6388 2.25396C8.60011 2.70233 6.73107 3.72152 5.25 5.1925C3.40832 7.00989 2.2724 9.4226 2.045 12H5C5.79565 12 6.55871 12.3161 7.12132 12.8787C7.68393 13.4413 8 14.2043 8 15V20C8 20.7956 7.68393 21.5587 7.12132 22.1213C6.55871 22.6839 5.79565 23 5 23H3C2.20435 23 1.44129 22.6839 0.87868 22.1213C0.316071 21.5587 0 20.7956 0 20V13C0.00280367 10.4249 0.769529 7.90846 2.20313 5.76928C3.63673 3.63011 5.67275 1.96433 8.05349 0.98281C10.4342 0.00128722 22.0526 -0.251859 24.5773 0.255414C27.102 0.762686 29.4194 2.00757 31.2363 3.8325C32.4358 5.03788 33.3857 6.46811 34.0316 8.04124C34.6774 9.61436 35.0065 11.2995 35 13Z" fill="white"/>
<path d="M35 22.6295V22.7262C35 24 34.4732 25.324 33.5355 26.2617C32.5978 27.1994 31.3261 27.7262 30 27.7262C29.7348 27.7262 29.4804 27.6208 29.2929 27.4333C29.1054 27.2458 29 26.9914 29 26.7262C29 26.461 29.1054 26.2066 29.2929 26.0191C29.4804 25.8315 29.7348 25.7262 30 25.7262C30.7956 25.7262 31.5587 25.4101 32.1213 24.8475C32.6839 24.2849 33 23.5218 33 22.7262H30C29.2043 22.7262 29.5 22.7262 29.5 22.2266C29.7495 22.4615 29.6797 22.8577 29.6797 22.062C30.5923 22.3357 28.9374 22.7893 29.5 22.2266C29.5 21.6295 29.5 22.2266 29.6657 21.52L33.8787 21.6295C35.1797 23.2266 33.6585 22.6703 33.8787 21.6295C34.4493 22.8084 35.0921 23.3841 33.1305 22.6703C32.7198 22.4125 32.8787 22.2614 32.8787 22.2614C32.7826 22.4264 33.3787 22.629 32.8787 22.4615C33.3787 22.6295 32.5395 21.942 32.8787 22.1295C33.3274 22.8573 33.4081 22.8983 32.8455 22.3357C33.2371 22.7045 33.3787 23.1295 32.8455 22.3357L32.8787 22.6295C32.5175 22.8514 32.7206 22.786 32.8787 22.2614C32.8787 22.2614 33.2654 22.2614 33.0466 22.2614C34.2347 22.7435 32.8731 22.7289 33.0801 22.517C33.0801 22.517 32.9802 21.3946 33.5 21.7266C34.6995 22.932 34 20.2266 35 21.2266C35 20.9718 35 21.6295 35 22.6295Z" fill="white"/>
<path d="M12.1008 85.3571C11.3619 85.3571 10.7574 85.122 10.2873 84.6518C9.81711 84.1817 9.58203 83.5772 9.58203 82.8384V16.3441C9.58203 15.6053 9.81711 15.0008 10.2873 14.5306C10.7574 14.0605 11.3619 13.8254 12.1008 13.8254H22.9816C23.6533 13.8254 24.2242 14.0605 24.6944 14.5306C25.1645 15.0008 25.3996 15.6053 25.3996 16.3441V39.0126C27.2131 36.8633 29.4296 35.1506 32.049 33.8744C34.6685 32.5983 37.8253 31.9602 41.5194 31.9602C45.4822 31.9602 48.9748 32.8669 51.9973 34.6804C55.0869 36.4267 57.5049 39.0126 59.2512 42.4381C60.9975 45.7964 61.8707 49.8935 61.8707 54.7294V82.8384C61.8707 83.5772 61.6356 84.1817 61.1655 84.6518C60.6953 85.122 60.0908 85.3571 59.352 85.3571H48.3703C47.6987 85.3571 47.1278 85.122 46.6576 84.6518C46.1875 84.1817 45.9524 83.5772 45.9524 82.8384V55.3339C45.9524 51.7741 45.0792 49.0203 43.3329 47.0725C41.5866 45.0575 39.1014 44.05 35.8775 44.05C32.7207 44.05 30.1684 45.0575 28.2206 47.0725C26.3399 49.0203 25.3996 51.7741 25.3996 55.3339V82.8384C25.3996 83.5772 25.1645 84.1817 24.6944 84.6518C24.2242 85.122 23.6533 85.3571 22.9816 85.3571H12.1008Z" fill="white"/>
<path d="M83.2506 86.3646C79.355 86.3646 75.896 85.4914 72.8735 83.7451C69.9182 81.9316 67.601 79.3457 65.9218 75.9874C64.3099 72.562 63.5039 68.4313 63.5039 63.5953V35.4864C63.5039 34.7476 63.7389 34.1431 64.2091 33.6729C64.6793 33.2027 65.2502 32.9677 65.9218 32.9677H76.6012C77.34 32.9677 77.9445 33.2027 78.4147 33.6729C78.8849 34.1431 79.1199 34.7476 79.1199 35.4864V62.9908C79.1199 70.5134 82.4111 74.2747 88.9933 74.2747C92.1501 74.2747 94.6353 73.3008 96.4487 71.353C98.3294 69.338 99.2697 66.5506 99.2697 62.9908V35.4864C99.2697 34.7476 99.5048 34.1431 99.975 33.6729C100.445 33.2027 101.05 32.9677 101.788 32.9677H114.018C114.689 32.9677 115.26 33.2027 115.731 33.6729C116.201 34.1431 116.436 34.7476 116.436 35.4864L112.468 59.3949L114.886 82.8384C114.886 83.5772 114.651 84.1817 114.181 84.6518C113.71 85.122 113.139 85.3571 112.468 85.3571H102.594C101.856 85.3571 101.251 85.122 100.781 84.6518C100.311 84.1817 100.076 83.5772 100.076 82.8384V78.9092C98.3294 81.3271 96.0793 83.1742 93.3255 84.4503C90.5717 85.7265 87.2134 86.3646 83.2506 86.3646Z" fill="white"/>
<path d="M125.885 45.05C123.474 45.05 121.7 45.5895 120.452 46.554L120.428 46.5715C119.12 47.5233 118.162 48.8027 117.554 50.4426C116.922 52.1489 116.536 54.0259 116.406 56.0803C116.34 57.6593 116.34 59.2042 116.405 60.7141H116.406C116.535 62.8467 116.921 64.7631 117.554 66.4719C118.161 68.1107 119.121 69.4288 120.438 70.4504C121.688 71.3557 123.469 71.8645 125.885 71.8645C128.017 71.8645 129.664 71.4205 130.899 70.6106L131.14 70.4436C132.544 69.4042 133.567 68.1351 134.232 66.6311C134.924 64.9963 135.301 63.3029 135.364 61.5452L135.365 61.5168L135.367 61.4895C135.43 60.7957 135.463 59.7901 135.463 58.4573C135.463 57.0553 135.43 56.0164 135.367 55.3235L135.365 55.2961L135.364 55.2688C135.301 53.5114 134.925 51.8563 134.239 50.2961L134.236 50.2893L134.233 50.2834C133.567 48.7097 132.546 47.4486 131.158 46.4827L131.14 46.4709C129.881 45.5553 128.16 45.0501 125.885 45.05ZM153.08 83.9465C153.08 89.1109 152.081 93.5534 150.032 97.2288C147.976 100.914 144.926 103.708 140.921 105.605C136.986 107.568 132.126 108.522 126.389 108.522C121.345 108.522 117.081 107.842 113.635 106.439V106.44C110.467 105.211 107.857 103.692 105.839 101.862L105.444 101.491C103.498 99.6155 102.067 97.6994 101.195 95.7375C100.383 93.9118 99.8875 92.3766 99.8032 91.1897L99.8022 91.1907C99.7074 90.1477 100.056 89.224 100.845 88.5334C101.552 87.9148 102.387 87.5814 103.317 87.5813H114.097C114.756 87.5813 115.382 87.71 115.932 88.012L116.164 88.1516L116.177 88.1614L116.19 88.1702C116.863 88.6508 117.327 89.3681 117.64 90.2112L117.76 90.4875C118.012 91.0433 118.338 91.6265 118.742 92.2375L118.95 92.5452L118.959 92.5598L118.968 92.5745C119.456 93.333 120.21 93.9932 121.288 94.5334C122.381 95.0483 123.894 95.3391 125.885 95.3391C128.149 95.3391 129.95 95.0141 131.33 94.4143C132.636 93.8465 133.603 92.8902 134.245 91.4895L134.251 91.4739L134.259 91.4583C134.969 90.0392 135.363 88.0297 135.363 85.3567V80.925C133.993 82.0572 132.414 83.0302 130.634 83.8479L130.633 83.8469C128.047 85.0657 124.906 85.6516 121.25 85.6516C117.656 85.6516 114.436 85.0986 111.61 83.968L111.596 83.9631L111.583 83.9563C108.836 82.7592 106.528 81.0949 104.677 78.9592L104.672 78.9534L104.667 78.9475C102.829 76.7563 101.428 74.1541 100.453 71.1584C99.4787 68.167 98.9286 64.8156 98.7915 61.1135C98.7234 59.2759 98.7233 57.4708 98.7915 55.6985C98.9289 52.1274 99.4799 48.8445 100.453 45.8567C101.428 42.8611 102.829 40.2588 104.667 38.0676C106.4 35.9383 108.538 34.2783 111.07 33.0891L111.583 32.8567C114.417 31.5833 117.647 30.9602 121.25 30.9602C125.071 30.9602 128.399 31.6899 131.195 33.1956C133.078 34.2094 134.738 35.3962 136.168 36.7581V35.4866C136.168 34.563 136.5 33.7453 137.146 33.0891C137.789 32.3673 138.619 31.9681 139.586 31.968H149.46C150.416 31.9681 151.237 32.3572 151.876 33.0618C152.586 33.7023 152.979 34.5256 152.979 35.4846L153.08 83.9446V83.9465Z" fill="white" stroke="#0033A0" stroke-width="2"/>
<path d="M178.833 30.9602C184.248 30.9602 188.938 31.919 192.867 33.8801H192.868C196.792 35.7724 199.862 38.5188 202.048 42.1125C204.231 45.6333 205.411 49.7935 205.622 54.5579C205.758 55.8712 205.826 57.4077 205.826 59.1624C205.826 60.8573 205.758 62.3946 205.622 63.7717C205.41 68.4645 204.266 72.6145 202.162 76.1926L202.161 76.1917C200.108 79.7949 197.104 82.5776 193.183 84.5383L193.176 84.5422L193.17 84.5452C189.238 86.4413 184.445 87.3645 178.833 87.3645C173.155 87.3645 168.328 86.442 164.394 84.5452L164.387 84.5422L164.381 84.5383C160.458 82.5766 157.421 79.7942 155.302 76.1926L155.298 76.1858L155.294 76.1799C153.258 72.5978 152.149 68.4439 151.941 63.7463L151.897 62.6926C151.859 61.6083 151.839 60.4313 151.839 59.1624C151.839 57.4085 151.874 55.8819 151.942 54.5852C152.15 49.8095 153.329 45.6401 155.516 42.1125C157.566 38.7435 160.391 36.1194 163.97 34.2454L164.697 33.8801C168.627 31.918 173.352 30.9602 178.833 30.9602ZM178.833 44.0422C175.772 44.0422 173.563 44.9981 172.047 46.802C170.558 48.6539 169.685 51.3989 169.555 55.1672V55.1829L169.554 55.1985C169.489 56.1742 169.456 57.493 169.456 59.1624C169.456 60.4142 169.474 61.4688 169.511 62.3293L169.554 63.1262L169.555 63.1418V63.1584C169.685 66.9959 170.56 69.77 172.045 71.6194C173.558 73.3554 175.766 74.2825 178.833 74.2825C181.904 74.2825 184.07 73.3525 185.512 71.6272C187.002 69.7778 187.878 67.0015 188.008 63.1584L188.009 63.1418L188.01 63.1262C188.075 62.1505 188.109 60.8317 188.109 59.1624C188.109 57.493 188.075 56.1742 188.01 55.1985L188.009 55.1829V55.1672C187.879 51.3929 187.003 48.6452 185.509 46.7932C184.063 45.0005 181.898 44.0422 178.833 44.0422Z" fill="white" stroke="#0033A0" stroke-width="2"/>
</svg>