<svg width="633" height="383" viewBox="0 0 633 383" fill="none" xmlns="http://www.w3.org/2000/svg">
<g clip-path="url(#clip0_28_418)">
<path d="M103.915 38.5968V68.2867C103.915 72.2238 102.351 73.0307 99.5667 75.8147C96.7828 72.6607 102.43 77.1937 99.4612 77.1937L97.9767 77.1937C97.1893 77.1937 96.4341 73.9119 95.8773 73.3551C101.259 72.7983 103.915 69.7712 102.43 72.7402C102.43 71.9528 95.3206 75.6511 95.8773 75.0943C96.4341 74.5375 109.853 74.2247 95.0078 74.2247L99.4612 74.694C101.824 74.694 99.6356 73.2863 101.306 71.6159C102.976 69.9455 97.9767 70.649 97.9767 68.2867H89.0698C86.7075 68.2867 84.442 67.3483 82.7716 65.6779C81.1012 64.0075 80.1628 61.742 80.1628 59.3797V44.5348C80.1628 42.1725 81.1012 39.907 82.7716 38.2366C84.442 36.5662 86.7075 35.6278 89.0698 35.6278H97.8468C97.285 29.4558 94.9786 23.571 91.197 18.6609C87.4155 13.7508 82.3148 10.018 76.4909 7.89862C70.6671 5.77922 37.6394 5.36067 31.5865 6.69187C25.5336 8.02306 19.9845 11.049 15.5872 15.4164C10.1193 20.8122 6.74675 27.9755 6.07159 35.6278H14.845C17.2072 35.6278 19.4728 36.5662 21.1431 38.2366C22.8135 39.907 23.7519 42.1725 23.7519 44.5348V59.3797C23.7519 61.742 22.8135 64.0075 21.1431 65.6779C19.4728 67.3483 17.2072 68.2867 14.845 68.2867H8.90698C6.5447 68.2867 4.27918 67.3483 2.60879 65.6779C0.938411 64.0075 0 61.742 0 59.3797V38.5968C0.00832408 30.9512 2.28473 23.48 6.54107 17.1288C10.7974 10.7776 16.8424 5.83197 23.9107 2.91783C30.9791 0.0036972 65.4741 -0.747892 72.9698 0.758196C80.4656 2.26428 87.346 5.96034 92.7402 11.3785C96.3016 14.9573 99.1219 19.2036 101.039 23.8742C102.957 28.5448 103.934 33.5479 103.915 38.5968Z" fill="#0033A0"/>
<path d="M103.915 67.1865V67.4738C103.915 71.2557 102.351 75.1868 99.5667 77.9707C96.7828 80.7547 93.0069 82.3187 89.0698 82.3187C88.2823 82.3187 87.5272 82.0059 86.9704 81.4491C86.4136 80.8923 86.1008 80.1372 86.1008 79.3497C86.1008 78.5623 86.4136 77.8071 86.9704 77.2503C87.5272 76.6935 88.2823 76.3807 89.0698 76.3807C91.432 76.3807 93.6976 75.4423 95.3679 73.7719C97.0383 72.1016 97.9767 69.836 97.9767 67.4738H89.0698C86.7075 67.4738 87.5853 67.4738 87.5853 65.9906C88.326 66.688 88.1187 67.8641 88.1187 65.5019C90.8284 66.3144 85.9149 67.661 87.5853 65.9906C87.5853 64.2176 87.5853 65.9906 88.0773 63.8926L100.586 64.2176C104.448 68.9596 99.9318 67.3078 100.586 64.2176C102.28 67.7179 104.188 69.4271 98.3642 67.3077C97.1447 66.5424 97.6165 66.0939 97.6165 66.0939C97.3314 66.5836 99.101 67.1853 97.6165 66.688C99.101 67.1865 96.6094 65.1454 97.6165 65.702C98.9489 67.8631 99.1885 67.9848 97.5181 66.3144C98.6806 67.4092 99.101 68.671 97.5181 66.3144L97.6165 67.1865C96.5443 67.8455 97.1472 67.6512 97.6165 66.0939C97.6165 66.0939 98.7648 66.0939 98.1152 66.0939C101.642 67.5252 97.6001 67.4818 98.2146 66.8528C98.2146 66.8528 97.9181 63.5202 99.4612 64.5061C103.023 68.0849 100.946 60.0526 103.915 63.0216C103.915 62.265 103.915 64.2176 103.915 67.1865Z" fill="#0033A0"/>
<path d="M35.9273 253.425C33.7337 253.425 31.939 252.727 30.5431 251.331C29.1472 249.935 28.4492 248.14 28.4492 245.947V48.5257C28.4492 46.3321 29.1472 44.5374 30.5431 43.1415C31.939 41.7456 33.7337 41.0476 35.9273 41.0476H68.2325C70.2267 41.0476 71.9217 41.7456 73.3176 43.1415C74.7135 44.5374 75.4115 46.3321 75.4115 48.5257V115.828C80.7957 109.447 87.3764 104.362 95.1536 100.573C102.931 96.7841 112.303 94.8897 123.271 94.8897C135.037 94.8897 145.406 97.5818 154.38 102.966C163.553 108.151 170.732 115.828 175.917 125.998C181.101 135.969 183.694 148.134 183.694 162.491V245.947C183.694 248.14 182.996 249.935 181.6 251.331C180.204 252.727 178.409 253.425 176.216 253.425H143.611C141.617 253.425 139.922 252.727 138.526 251.331C137.13 249.935 136.432 248.14 136.432 245.947V164.286C136.432 153.717 133.84 145.541 128.655 139.758C123.471 133.776 116.092 130.784 106.52 130.784C97.1477 130.784 89.5699 133.776 83.7869 139.758C78.2033 145.541 75.4115 153.717 75.4115 164.286V245.947C75.4115 248.14 74.7135 249.935 73.3176 251.331C71.9217 252.727 70.2267 253.425 68.2325 253.425H35.9273Z" fill="#0033A0"/>
<path d="M247.171 256.416C235.605 256.416 225.335 253.823 216.361 248.639C207.587 243.254 200.707 235.577 195.722 225.606C190.936 215.436 188.543 203.172 188.543 188.814V105.359C188.543 103.165 189.241 101.371 190.637 99.9748C192.032 98.5789 193.728 97.8809 195.722 97.8809H227.429C229.622 97.8809 231.417 98.5789 232.813 99.9748C234.209 101.371 234.907 103.165 234.907 105.359V187.019C234.907 209.354 244.678 220.521 264.221 220.521C273.593 220.521 280.972 217.63 286.356 211.847C291.939 205.864 294.731 197.588 294.731 187.019V105.359C294.731 103.165 295.429 101.371 296.825 99.9748C298.221 98.5789 300.016 97.8809 302.209 97.8809H338.518C340.512 97.8809 342.207 98.5789 343.603 99.9748C344.999 101.371 345.697 103.165 345.697 105.359L333.916 176.343L341.095 245.947C341.095 248.14 340.397 249.935 339.001 251.331C337.605 252.727 335.91 253.425 333.916 253.425H304.602C302.409 253.425 300.614 252.727 299.218 251.331C297.822 249.935 297.124 248.14 297.124 245.947V234.281C291.939 241.46 285.259 246.944 277.083 250.733C268.907 254.521 258.936 256.416 247.171 256.416Z" fill="#0033A0"/>
<path d="M373.751 133.753C366.593 133.753 361.326 135.355 357.62 138.219L357.585 138.245L357.55 138.271C353.665 141.096 350.82 144.894 349.017 149.763C347.141 154.829 345.996 160.403 345.61 166.504L345.545 168.264C345.417 172.34 345.438 176.339 345.607 180.259L345.687 181.438C346.136 187.3 347.255 192.598 349.017 197.354C350.82 202.222 353.672 206.137 357.584 209.171C361.296 211.856 366.581 213.364 373.751 213.364C380.499 213.364 385.609 211.867 389.346 209.152C393.526 206.061 396.57 202.285 398.543 197.809C400.592 192.96 401.707 187.938 401.893 182.726L401.896 182.645L401.904 182.562C402.091 180.502 402.191 177.516 402.191 173.559C402.191 169.396 402.091 166.313 401.904 164.256L401.896 164.175L401.893 164.093C401.707 158.875 400.591 153.961 398.553 149.329L398.544 149.31L398.537 149.29C396.56 144.618 393.528 140.876 389.406 138.008L389.379 137.99L389.355 137.972C385.617 135.253 380.504 133.753 373.751 133.753ZM454.493 249.237C454.493 264.57 451.528 277.76 445.442 288.672C439.349 299.597 430.314 307.879 418.452 313.511L418.453 313.512C406.757 319.359 392.309 322.2 375.248 322.2C360.272 322.2 347.613 320.183 337.382 316.018L336.447 315.649C326.842 311.821 319.009 307.069 313.061 301.326V301.325C307.286 295.756 303.034 290.068 300.446 284.243C298.037 278.823 296.564 274.266 296.314 270.742L296.313 270.743C296.032 267.647 297.066 264.906 299.409 262.856C301.508 261.019 303.987 260.027 306.749 260.027H338.754C340.85 260.027 342.832 260.467 344.548 261.507L344.888 261.723L344.928 261.749L344.967 261.777C346.972 263.209 348.352 265.348 349.283 267.862C350.071 269.749 351.151 271.745 352.542 273.853L353.161 274.768L353.189 274.809L353.216 274.852C354.661 277.099 356.892 279.057 360.082 280.659C363.329 282.194 367.827 283.06 373.751 283.06C380.474 283.06 385.821 282.096 389.917 280.315C393.795 278.629 396.665 275.79 398.572 271.631L398.593 271.585L398.616 271.54C400.722 267.327 401.891 261.361 401.891 253.425V240.266C397.831 243.621 393.153 246.505 387.88 248.93L387.881 248.931C380.198 252.559 370.861 254.3 359.992 254.3C349.321 254.3 339.762 252.658 331.371 249.302L331.328 249.284L331.287 249.267C323.133 245.713 316.282 240.771 310.787 234.431L310.77 234.412L310.755 234.394C305.299 227.888 301.137 220.164 298.242 211.271C295.35 202.389 293.719 192.438 293.312 181.446C293.11 175.99 293.11 170.63 293.312 165.368C293.72 154.765 295.353 145.017 298.242 136.146C301.132 127.269 305.283 119.557 310.725 113.059C316.047 106.508 322.661 101.45 330.522 97.8916L331.287 97.5518C339.703 93.7707 349.293 91.9209 359.992 91.9209C371.334 91.9209 381.215 94.0863 389.517 98.5566C395.108 101.567 400.036 105.092 404.285 109.137V105.359C404.285 102.627 405.261 100.206 407.164 98.2617C409.076 96.1043 411.548 94.9122 414.432 94.9121H443.747C446.591 94.9122 449.033 96.0734 450.934 98.1748C453.032 100.074 454.192 102.512 454.194 105.353L454.493 249.23V249.237Z" fill="#0033A0" stroke="white" stroke-width="5.93798"/>
<path d="M530.953 91.9209C547.032 91.9209 560.958 94.7671 572.624 100.591L573.709 101.125C584.844 106.721 593.593 114.696 599.881 125.032L600.481 126.02C606.575 136.255 609.879 148.267 610.488 161.961C610.895 165.865 611.095 170.434 611.095 175.652C611.095 180.68 610.894 185.241 610.489 189.327C609.863 203.248 606.473 215.558 600.237 226.176C594.143 236.892 585.215 245.167 573.559 250.995L573.54 251.005L573.521 251.014C561.845 256.643 547.615 259.385 530.953 259.385C514.097 259.385 499.765 256.645 488.084 251.014L488.066 251.005L488.046 250.995C476.398 245.171 467.381 236.908 461.09 226.214L461.069 226.177C455.019 215.537 451.727 203.199 451.112 189.244L451.113 189.243C450.911 185.2 450.81 180.668 450.81 175.652C450.81 170.433 450.91 165.892 451.113 162.036C451.733 147.868 455.236 135.499 461.725 125.032C468.217 114.362 477.329 106.209 488.982 100.591C500.652 94.7647 514.68 91.9209 530.953 91.9209ZM530.953 130.762C521.868 130.762 515.312 133.599 510.811 138.952C506.388 144.451 503.795 152.6 503.409 163.79L503.408 163.838L503.405 163.886C503.212 166.782 503.112 170.696 503.112 175.652C503.112 179.989 503.188 183.529 503.336 186.286L503.405 187.42L503.408 187.469L503.41 187.517C503.796 198.904 506.388 207.138 510.793 212.629C515.284 217.789 521.844 220.543 530.953 220.543C540.078 220.543 546.512 217.781 550.793 212.653C555.211 207.163 557.81 198.92 558.197 187.517L558.198 187.469L558.202 187.42C558.395 184.523 558.494 180.609 558.494 175.652C558.494 170.696 558.395 166.782 558.202 163.886L558.198 163.838L558.197 163.79C557.81 152.584 555.211 144.428 550.777 138.93C546.484 133.607 540.054 130.762 530.953 130.762Z" fill="#0033A0" stroke="white" stroke-width="5.93798"/>
<path d="M39.2514 378.506C38.8152 378.506 38.5972 378.308 38.5972 377.912V363.628C38.5972 363.233 38.8152 363.035 39.2514 363.035H50.7003C51.1801 363.035 51.42 363.197 51.42 363.52V364.319C51.42 364.642 51.1801 364.804 50.7003 364.804H41.1094V369.594H49.9153C50.395 369.594 50.6349 369.756 50.6349 370.08V370.878C50.6349 371.202 50.395 371.364 49.9153 371.364H41.1094V376.736H51.0929C51.5726 376.736 51.8125 376.898 51.8125 377.222V378.02C51.8125 378.344 51.5726 378.506 51.0929 378.506H39.2514Z" fill="#0033A0"/>
<path d="M56.6726 378.506C56.2365 378.506 56.0184 378.308 56.0184 377.912V363.628C56.0184 363.233 56.2365 363.035 56.6726 363.035H57.8764C58.3125 363.035 58.5306 363.233 58.5306 363.628V376.736H67.2056C67.6854 376.736 67.9253 376.898 67.9253 377.222V378.02C67.9253 378.344 67.6854 378.506 67.2056 378.506H56.6726Z" fill="#0033A0"/>
<path d="M86.1897 361.891C85.6925 361.891 85.6401 361.701 86.0327 361.319L87.7729 359.647C88.052 359.381 88.4053 359.248 88.8327 359.248H90.887C91.5587 359.248 91.6197 359.435 91.0702 359.809L88.4795 361.578C88.1742 361.787 87.8209 361.891 87.4196 361.891H86.1897ZM82.0681 378.506C81.6319 378.506 81.4138 378.308 81.4138 377.912V363.628C81.4138 363.233 81.6319 363.035 82.0681 363.035H93.517C93.9968 363.035 94.2366 363.197 94.2366 363.52V364.319C94.2366 364.642 93.9968 364.804 93.517 364.804H83.9261V369.594H92.7319C93.2117 369.594 93.4516 369.756 93.4516 370.08V370.878C93.4516 371.202 93.2117 371.364 92.7319 371.364H83.9261V376.736H93.9095C94.3893 376.736 94.6292 376.898 94.6292 377.222V378.02C94.6292 378.344 94.3893 378.506 93.9095 378.506H82.0681Z" fill="#0033A0"/>
<path d="M98.2332 378.506C97.6662 378.506 97.5877 378.268 97.9977 377.794L104.278 370.522L98.4425 363.747C98.0325 363.272 98.1111 363.035 98.678 363.035H100.287C100.671 363.035 100.977 363.175 101.203 363.456L105.796 369.087L110.389 363.456C110.615 363.175 110.921 363.035 111.305 363.035H112.914C113.481 363.035 113.559 363.272 113.15 363.747L107.314 370.522L113.594 377.794C114.004 378.268 113.926 378.506 113.359 378.506H111.736C111.353 378.506 111.047 378.366 110.82 378.085L105.796 371.957L100.772 378.085C100.545 378.366 100.239 378.506 99.8557 378.506H98.2332Z" fill="#0033A0"/>
<path d="M117.434 378.506C116.998 378.506 116.78 378.308 116.78 377.912V363.628C116.78 363.233 116.998 363.035 117.434 363.035H118.638C119.074 363.035 119.292 363.233 119.292 363.628V377.912C119.292 378.308 119.074 378.506 118.638 378.506H117.434Z" fill="#0033A0"/>
<path d="M123.511 364.891C123.031 364.891 122.791 364.729 122.791 364.405V363.52C122.791 363.197 123.031 363.035 123.511 363.035H137.354C137.834 363.035 138.074 363.197 138.074 363.52V364.405C138.074 364.729 137.834 364.891 137.354 364.891H131.689V377.912C131.689 378.308 131.471 378.506 131.034 378.506H129.831C129.395 378.506 129.176 378.308 129.176 377.912V364.891H123.511Z" fill="#0033A0"/>
<path d="M140.553 370.77C140.553 368.253 141.303 366.282 142.803 364.858C144.312 363.427 146.484 362.711 149.319 362.711C152.154 362.711 154.322 363.427 155.822 364.858C157.331 366.282 158.086 368.253 158.086 370.77C158.086 373.288 157.331 375.262 155.822 376.693C154.322 378.117 152.154 378.829 149.319 378.829C146.484 378.829 144.312 378.117 142.803 376.693C141.303 375.262 140.553 373.288 140.553 370.77ZM143.235 370.77C143.235 372.784 143.737 374.352 144.74 375.474C145.743 376.589 147.269 377.146 149.319 377.146C151.369 377.146 152.896 376.589 153.899 375.474C154.902 374.352 155.404 372.784 155.404 370.77C155.404 368.756 154.902 367.192 153.899 366.077C152.896 364.955 151.369 364.394 149.319 364.394C147.269 364.394 145.743 364.955 144.74 366.077C143.737 367.192 143.235 368.756 143.235 370.77Z" fill="#0033A0"/>
<path d="M172.7 378.506C172.264 378.506 172.045 378.308 172.045 377.912V363.628C172.045 363.233 172.264 363.035 172.7 363.035H177.528C181.226 363.035 183.795 363.711 185.235 365.063C186.683 366.408 187.407 368.303 187.407 370.749C187.407 373.194 186.683 375.1 185.235 376.467C183.795 377.826 181.226 378.506 177.528 378.506H172.7ZM174.558 376.736H177.41C180.289 376.736 182.225 376.233 183.22 375.226C184.223 374.219 184.724 372.727 184.724 370.749C184.724 368.771 184.223 367.282 183.22 366.282C182.225 365.282 180.289 364.783 177.41 364.783H174.558V376.736Z" fill="#0033A0"/>
<path d="M192.293 378.506C191.857 378.506 191.639 378.308 191.639 377.912V363.628C191.639 363.233 191.857 363.035 192.293 363.035H203.742C204.222 363.035 204.462 363.197 204.462 363.52V364.319C204.462 364.642 204.222 364.804 203.742 364.804H194.151V369.594H202.957C203.437 369.594 203.676 369.756 203.676 370.08V370.878C203.676 371.202 203.437 371.364 202.957 371.364H194.151V376.736H204.134C204.614 376.736 204.854 376.898 204.854 377.222V378.02C204.854 378.344 204.614 378.506 204.134 378.506H192.293Z" fill="#0033A0"/>
<path d="M217.754 364.891C217.274 364.891 217.034 364.729 217.034 364.405V363.52C217.034 363.197 217.274 363.035 217.754 363.035H231.597C232.077 363.035 232.317 363.197 232.317 363.52V364.405C232.317 364.729 232.077 364.891 231.597 364.891H225.932V377.912C225.932 378.308 225.714 378.506 225.277 378.506H224.074C223.637 378.506 223.419 378.308 223.419 377.912V364.891H217.754Z" fill="#0033A0"/>
<path d="M235.816 372.604V363.628C235.816 363.233 236.034 363.035 236.47 363.035H237.674C238.11 363.035 238.328 363.233 238.328 363.628V372.281C238.328 374.295 238.673 375.611 239.362 376.229C240.06 376.841 241.194 377.146 242.764 377.146C244.334 377.146 245.464 376.841 246.153 376.229C246.851 375.611 247.2 374.295 247.2 372.281V363.628C247.2 363.233 247.418 363.035 247.854 363.035H249.058C249.494 363.035 249.712 363.233 249.712 363.628V372.604C249.712 374.884 249.075 376.492 247.802 377.427C246.537 378.362 244.858 378.829 242.764 378.829C240.671 378.829 238.987 378.362 237.713 377.427C236.449 376.492 235.816 374.884 235.816 372.604Z" fill="#0033A0"/>
<path d="M254.912 377.341C254.45 376.995 254.328 376.693 254.546 376.434L255.226 375.625C255.462 375.345 255.841 375.366 256.365 375.69C257.054 376.114 257.769 376.463 258.51 376.736C259.261 377.01 260.168 377.146 261.232 377.146C262.017 377.146 262.68 377.049 263.221 376.855C263.762 376.661 264.193 376.384 264.516 376.024C264.848 375.658 265.013 375.215 265.013 374.697C265.013 374.323 264.944 373.978 264.804 373.662C264.673 373.338 264.46 373.068 264.163 372.853C263.866 372.637 263.557 372.468 263.234 372.345C262.702 372.144 261.904 371.91 260.839 371.644C259.784 371.378 258.859 371.09 258.066 370.781C257.28 370.472 256.652 370.098 256.181 369.659C255.719 369.22 255.409 368.771 255.252 368.311C255.104 367.843 255.03 367.311 255.03 366.714C255.03 365.8 255.353 365.013 255.998 364.351C256.644 363.689 257.433 363.251 258.367 363.035C259.309 362.819 260.264 362.711 261.232 362.711C262.34 362.711 263.304 362.83 264.124 363.067C264.944 363.305 265.676 363.614 266.322 363.995C266.775 364.261 266.88 364.542 266.636 364.837L265.969 365.624C265.768 365.861 265.375 365.811 264.791 365.473C264.346 365.214 263.801 364.973 263.155 364.75C262.519 364.52 261.886 364.405 261.258 364.405C260.456 364.405 259.788 364.484 259.256 364.642C258.724 364.793 258.305 365.052 258 365.419C257.695 365.786 257.542 366.21 257.542 366.692C257.542 366.994 257.577 367.275 257.647 367.534C257.717 367.785 257.895 368.044 258.183 368.311C258.471 368.577 258.82 368.782 259.23 368.925C259.78 369.12 260.63 369.35 261.782 369.616C262.942 369.875 263.954 370.195 264.817 370.576C265.62 370.929 266.195 371.299 266.544 371.687C266.902 372.069 267.177 372.486 267.369 372.939C267.569 373.385 267.67 373.888 267.67 374.449C267.67 375.471 267.351 376.323 266.714 377.006C266.078 377.689 265.323 378.164 264.451 378.43C263.578 378.696 262.484 378.829 261.167 378.829C259.588 378.829 258.279 378.678 257.241 378.376C256.203 378.074 255.427 377.729 254.912 377.341Z" fill="#0033A0"/>
<path d="M280.491 370.77C280.491 368.253 281.245 366.282 282.754 364.858C284.272 363.427 286.449 362.711 289.284 362.711C290.941 362.711 292.31 362.945 293.392 363.412C294.474 363.873 295.25 364.506 295.721 365.311C295.965 365.728 295.926 366.016 295.603 366.174L294.57 366.671C294.221 366.836 293.911 366.699 293.641 366.261C293.353 365.808 292.882 365.383 292.228 364.988C291.573 364.592 290.636 364.394 289.414 364.394C287.234 364.394 285.646 364.955 284.652 366.077C283.666 367.192 283.173 368.756 283.173 370.77C283.173 372.784 283.666 374.352 284.652 375.474C285.646 376.589 287.234 377.146 289.414 377.146C290.671 377.146 291.674 376.909 292.424 376.434C293.183 375.96 293.732 375.463 294.073 374.946C294.343 374.528 294.657 374.402 295.015 374.568L296.101 375.075C296.415 375.226 296.441 375.514 296.179 375.938C295.664 376.765 294.827 377.456 293.667 378.009C292.507 378.556 291.046 378.829 289.284 378.829C286.449 378.829 284.272 378.117 282.754 376.693C281.245 375.262 280.491 373.288 280.491 370.77Z" fill="#0033A0"/>
<path d="M301.314 378.506C300.878 378.506 300.66 378.308 300.66 377.912V363.628C300.66 363.233 300.878 363.035 301.314 363.035H302.518C302.954 363.035 303.172 363.233 303.172 363.628V376.736H311.847C312.327 376.736 312.567 376.898 312.567 377.222V378.02C312.567 378.344 312.327 378.506 311.847 378.506H301.314Z" fill="#0033A0"/>
<path d="M316.982 378.506C316.546 378.506 316.328 378.308 316.328 377.912V363.628C316.328 363.233 316.546 363.035 316.982 363.035H318.186C318.622 363.035 318.84 363.233 318.84 363.628V377.912C318.84 378.308 318.622 378.506 318.186 378.506H316.982Z" fill="#0033A0"/>
<path d="M324.747 378.506C324.311 378.506 324.093 378.308 324.093 377.912V363.628C324.093 363.233 324.311 363.035 324.747 363.035H336.196C336.675 363.035 336.915 363.197 336.915 363.52V364.319C336.915 364.642 336.675 364.804 336.196 364.804H326.605V369.594H335.411C335.89 369.594 336.13 369.756 336.13 370.08V370.878C336.13 371.202 335.89 371.364 335.411 371.364H326.605V376.736H336.588C337.068 376.736 337.308 376.898 337.308 377.222V378.02C337.308 378.344 337.068 378.506 336.588 378.506H324.747Z" fill="#0033A0"/>
<path d="M342.168 378.506C341.732 378.506 341.514 378.308 341.514 377.912V363.628C341.514 363.233 341.732 363.035 342.168 363.035H343.843C344.453 363.035 344.89 363.215 345.151 363.574L353.342 374.892H353.394C353.377 374.604 353.368 374.316 353.368 374.028V363.628C353.368 363.233 353.586 363.035 354.023 363.035H355.226C355.662 363.035 355.881 363.233 355.881 363.628V377.912C355.881 378.308 355.662 378.506 355.226 378.506H354.075C353.464 378.506 353.028 378.326 352.766 377.966L344.052 365.959H344C344.017 366.246 344.026 366.534 344.026 366.822V377.912C344.026 378.308 343.808 378.506 343.372 378.506H342.168Z" fill="#0033A0"/>
<path d="M360.1 364.891C359.62 364.891 359.38 364.729 359.38 364.405V363.52C359.38 363.197 359.62 363.035 360.1 363.035H373.943C374.423 363.035 374.663 363.197 374.663 363.52V364.405C374.663 364.729 374.423 364.891 373.943 364.891H368.277V377.912C368.277 378.308 368.059 378.506 367.623 378.506H366.419C365.983 378.506 365.765 378.308 365.765 377.912V364.891H360.1Z" fill="#0033A0"/>
<path d="M378.816 378.506C378.38 378.506 378.162 378.308 378.162 377.912V363.628C378.162 363.233 378.38 363.035 378.816 363.035H390.265C390.745 363.035 390.985 363.197 390.985 363.52V364.319C390.985 364.642 390.745 364.804 390.265 364.804H380.674V369.594H389.48C389.96 369.594 390.2 369.756 390.2 370.08V370.878C390.2 371.202 389.96 371.364 389.48 371.364H380.674V376.736H390.658C391.137 376.736 391.377 376.898 391.377 377.222V378.02C391.377 378.344 391.137 378.506 390.658 378.506H378.816Z" fill="#0033A0"/>
<path d="M395.531 377.341C395.068 376.995 394.946 376.693 395.164 376.434L395.845 375.625C396.08 375.345 396.46 375.366 396.983 375.69C397.672 376.114 398.388 376.463 399.129 376.736C399.879 377.01 400.786 377.146 401.851 377.146C402.636 377.146 403.299 377.049 403.839 376.855C404.38 376.661 404.812 376.384 405.135 376.024C405.466 375.658 405.632 375.215 405.632 374.697C405.632 374.323 405.562 373.978 405.423 373.662C405.292 373.338 405.078 373.068 404.782 372.853C404.485 372.637 404.175 372.468 403.853 372.345C403.32 372.144 402.522 371.91 401.458 371.644C400.403 371.378 399.478 371.09 398.684 370.781C397.899 370.472 397.271 370.098 396.8 369.659C396.338 369.22 396.028 368.771 395.871 368.311C395.723 367.843 395.649 367.311 395.649 366.714C395.649 365.8 395.971 365.013 396.617 364.351C397.262 363.689 398.052 363.251 398.985 363.035C399.927 362.819 400.882 362.711 401.851 362.711C402.958 362.711 403.922 362.83 404.742 363.067C405.562 363.305 406.295 363.614 406.94 363.995C407.394 364.261 407.499 364.542 407.254 364.837L406.587 365.624C406.387 365.861 405.994 365.811 405.41 365.473C404.965 365.214 404.42 364.973 403.774 364.75C403.137 364.52 402.505 364.405 401.877 364.405C401.074 364.405 400.407 364.484 399.875 364.642C399.343 364.793 398.924 365.052 398.619 365.419C398.313 365.786 398.161 366.21 398.161 366.692C398.161 366.994 398.196 367.275 398.265 367.534C398.335 367.785 398.514 368.044 398.802 368.311C399.09 368.577 399.439 368.782 399.849 368.925C400.398 369.12 401.249 369.35 402.4 369.616C403.56 369.875 404.572 370.195 405.436 370.576C406.238 370.929 406.814 371.299 407.163 371.687C407.521 372.069 407.795 372.486 407.987 372.939C408.188 373.385 408.288 373.888 408.288 374.449C408.288 375.471 407.97 376.323 407.333 377.006C406.696 377.689 405.942 378.164 405.069 378.43C404.197 378.696 403.102 378.829 401.785 378.829C400.206 378.829 398.898 378.678 397.86 378.376C396.822 378.074 396.045 377.729 395.531 377.341Z" fill="#0033A0"/>
<path d="M413.371 378.506C412.978 378.506 412.782 378.344 412.782 378.02V376.704C412.782 376.38 412.978 376.219 413.371 376.219H414.889C415.281 376.219 415.477 376.38 415.477 376.704V378.02C415.477 378.775 415.377 379.434 415.176 379.995C414.984 380.563 414.601 381.059 414.025 381.483C413.833 381.62 413.672 381.638 413.541 381.537L412.952 381.084C412.821 380.984 412.852 380.861 413.044 380.717C413.34 380.502 413.58 380.189 413.763 379.779C413.955 379.376 414.051 378.952 414.051 378.506H413.371Z" fill="#0033A0"/>
<path d="M430.732 377.341C430.27 376.995 430.148 376.693 430.366 376.434L431.046 375.625C431.282 375.345 431.661 375.366 432.185 375.69C432.874 376.114 433.589 376.463 434.331 376.736C435.081 377.01 435.988 377.146 437.052 377.146C437.837 377.146 438.5 377.049 439.041 376.855C439.582 376.661 440.014 376.384 440.336 376.024C440.668 375.658 440.834 375.215 440.834 374.697C440.834 374.323 440.764 373.978 440.624 373.662C440.493 373.338 440.28 373.068 439.983 372.853C439.686 372.637 439.377 372.468 439.054 372.345C438.522 372.144 437.724 371.91 436.66 371.644C435.604 371.378 434.679 371.09 433.886 370.781C433.101 370.472 432.473 370.098 432.001 369.659C431.539 369.22 431.229 368.771 431.072 368.311C430.924 367.843 430.85 367.311 430.85 366.714C430.85 365.8 431.173 365.013 431.818 364.351C432.464 363.689 433.253 363.251 434.187 363.035C435.129 362.819 436.084 362.711 437.052 362.711C438.16 362.711 439.124 362.83 439.944 363.067C440.764 363.305 441.496 363.614 442.142 363.995C442.596 364.261 442.7 364.542 442.456 364.837L441.789 365.624C441.588 365.861 441.196 365.811 440.611 365.473C440.166 365.214 439.621 364.973 438.976 364.75C438.339 364.52 437.706 364.405 437.078 364.405C436.276 364.405 435.608 364.484 435.076 364.642C434.544 364.793 434.126 365.052 433.82 365.419C433.515 365.786 433.362 366.21 433.362 366.692C433.362 366.994 433.397 367.275 433.467 367.534C433.537 367.785 433.716 368.044 434.003 368.311C434.291 368.577 434.64 368.782 435.05 368.925C435.6 369.12 436.45 369.35 437.602 369.616C438.762 369.875 439.774 370.195 440.637 370.576C441.44 370.929 442.015 371.299 442.364 371.687C442.722 372.069 442.997 372.486 443.189 372.939C443.389 373.385 443.49 373.888 443.49 374.449C443.49 375.471 443.171 376.323 442.534 377.006C441.898 377.689 441.143 378.164 440.271 378.43C439.399 378.696 438.304 378.829 436.987 378.829C435.408 378.829 434.099 378.678 433.061 378.376C432.023 378.074 431.247 377.729 430.732 377.341Z" fill="#0033A0"/>
<path d="M448.258 378.506C447.822 378.506 447.604 378.308 447.604 377.912V363.628C447.604 363.233 447.822 363.035 448.258 363.035H449.462C449.898 363.035 450.116 363.233 450.116 363.628V377.912C450.116 378.308 449.898 378.506 449.462 378.506H448.258Z" fill="#0033A0"/>
<path d="M456.023 378.506C455.587 378.506 455.369 378.308 455.369 377.912V363.628C455.369 363.233 455.587 363.035 456.023 363.035H458.81C459.142 363.035 459.39 363.251 459.556 363.682L463.298 373.36C463.682 374.352 463.909 374.953 463.978 375.161C464.048 375.363 464.149 375.737 464.279 376.283H464.358C464.489 375.737 464.589 375.363 464.659 375.161C464.729 374.953 464.955 374.352 465.339 373.36L469.081 363.682C469.247 363.251 469.496 363.035 469.827 363.035H472.614C473.05 363.035 473.268 363.233 473.268 363.628V377.912C473.268 378.308 473.05 378.506 472.614 378.506H471.41C470.974 378.506 470.756 378.308 470.756 377.912V366.595C470.756 366.307 470.765 366.02 470.782 365.732H470.73L465.902 377.848C465.727 378.286 465.44 378.506 465.038 378.506H463.599C463.198 378.506 462.91 378.286 462.735 377.848L457.907 365.732H457.855C457.872 366.02 457.881 366.307 457.881 366.595V377.912C457.881 378.308 457.663 378.506 457.227 378.506H456.023Z" fill="#0033A0"/>
<path d="M479.175 378.506C478.739 378.506 478.521 378.308 478.521 377.912V363.628C478.521 363.233 478.739 363.035 479.175 363.035H484.671C487.637 363.035 489.639 363.448 490.677 364.276C491.715 365.095 492.234 366.225 492.234 367.663C492.234 369.102 491.715 370.234 490.677 371.062C489.639 371.882 487.637 372.292 484.671 372.292H481.033V377.912C481.033 378.308 480.815 378.506 480.379 378.506H479.175ZM481.033 370.522H484.71C486.629 370.522 487.938 370.299 488.635 369.853C489.333 369.4 489.682 368.67 489.682 367.663C489.682 366.656 489.333 365.93 488.635 365.484C487.938 365.031 486.629 364.804 484.71 364.804H481.033V370.522Z" fill="#0033A0"/>
<path d="M497.094 378.506C496.658 378.506 496.439 378.308 496.439 377.912V363.628C496.439 363.233 496.658 363.035 497.094 363.035H498.297C498.734 363.035 498.952 363.233 498.952 363.628V376.736H507.627C508.106 376.736 508.346 376.898 508.346 377.222V378.02C508.346 378.344 508.106 378.506 507.627 378.506H497.094Z" fill="#0033A0"/>
<path d="M512.762 378.506C512.325 378.506 512.107 378.308 512.107 377.912V363.628C512.107 363.233 512.325 363.035 512.762 363.035H513.965C514.402 363.035 514.62 363.233 514.62 363.628V377.912C514.62 378.308 514.402 378.506 513.965 378.506H512.762Z" fill="#0033A0"/>
<path d="M520.526 378.506C520.09 378.506 519.872 378.308 519.872 377.912V363.628C519.872 363.233 520.09 363.035 520.526 363.035H531.19C531.67 363.035 531.91 363.197 531.91 363.52V364.319C531.91 364.642 531.67 364.804 531.19 364.804H522.384V369.918H530.065C530.545 369.918 530.785 370.08 530.785 370.404V371.202C530.785 371.526 530.545 371.687 530.065 371.687H522.384V377.912C522.384 378.308 522.166 378.506 521.73 378.506H520.526Z" fill="#0033A0"/>
<path d="M536.587 378.506C536.151 378.506 535.933 378.308 535.933 377.912V363.628C535.933 363.233 536.151 363.035 536.587 363.035H537.791C538.227 363.035 538.445 363.233 538.445 363.628V377.912C538.445 378.308 538.227 378.506 537.791 378.506H536.587Z" fill="#0033A0"/>
<path d="M542.677 370.77C542.677 368.253 543.432 366.282 544.941 364.858C546.458 363.427 548.635 362.711 551.47 362.711C553.127 362.711 554.497 362.945 555.578 363.412C556.66 363.873 557.436 364.506 557.907 365.311C558.152 365.728 558.112 366.016 557.79 366.174L556.756 366.671C556.407 366.836 556.097 366.699 555.827 366.261C555.539 365.808 555.068 365.383 554.414 364.988C553.76 364.592 552.822 364.394 551.601 364.394C549.42 364.394 547.832 364.955 546.838 366.077C545.852 367.192 545.359 368.756 545.359 370.77C545.359 372.784 545.852 374.352 546.838 375.474C547.832 376.589 549.42 377.146 551.601 377.146C552.857 377.146 553.86 376.909 554.61 376.434C555.369 375.96 555.918 375.463 556.259 374.946C556.529 374.528 556.843 374.402 557.201 374.568L558.287 375.075C558.601 375.226 558.627 375.514 558.365 375.938C557.851 376.765 557.013 377.456 555.853 378.009C554.693 378.556 553.232 378.829 551.47 378.829C548.635 378.829 546.458 378.117 544.941 376.693C543.432 375.262 542.677 373.288 542.677 370.77Z" fill="#0033A0"/>
<path d="M561.904 378.506C561.45 378.506 561.332 378.268 561.551 377.794L568.067 363.693C568.267 363.254 568.555 363.035 568.93 363.035H570.762C571.137 363.035 571.425 363.254 571.626 363.693L578.142 377.794C578.36 378.268 578.242 378.506 577.788 378.506H576.454C575.991 378.506 575.677 378.33 575.512 377.977L573.876 374.406H565.816L564.181 377.977C564.015 378.33 563.701 378.506 563.238 378.506H561.904ZM566.64 372.637H573.052L571.05 368.321C570.867 367.919 570.684 367.473 570.5 366.984C570.326 366.494 570.117 365.8 569.872 364.901H569.82C569.576 365.8 569.362 366.494 569.179 366.984C569.004 367.473 568.826 367.919 568.642 368.321L566.64 372.637Z" fill="#0033A0"/>
<path d="M582.099 378.506C581.663 378.506 581.445 378.308 581.445 377.912V363.628C581.445 363.233 581.663 363.035 582.099 363.035H586.927C590.626 363.035 593.195 363.711 594.634 365.063C596.082 366.408 596.806 368.303 596.806 370.749C596.806 373.194 596.082 375.1 594.634 376.467C593.195 377.826 590.626 378.506 586.927 378.506H582.099ZM583.957 376.736H586.809C589.688 376.736 591.625 376.233 592.619 375.226C593.622 374.219 594.124 372.727 594.124 370.749C594.124 368.771 593.622 367.282 592.619 366.282C591.625 365.282 589.688 364.783 586.809 364.783H583.957V376.736Z" fill="#0033A0"/>
<path d="M600.017 370.77C600.017 368.253 600.768 366.282 602.268 364.858C603.777 363.427 605.949 362.711 608.784 362.711C611.619 362.711 613.787 363.427 615.287 364.858C616.796 366.282 617.551 368.253 617.551 370.77C617.551 373.288 616.796 375.262 615.287 376.693C613.787 378.117 611.619 378.829 608.784 378.829C605.949 378.829 603.777 378.117 602.268 376.693C600.768 375.262 600.017 373.288 600.017 370.77ZM602.7 370.77C602.7 372.784 603.201 374.352 604.204 375.474C605.208 376.589 606.734 377.146 608.784 377.146C610.834 377.146 612.36 376.589 613.364 375.474C614.367 374.352 614.868 372.784 614.868 370.77C614.868 368.756 614.367 367.192 613.364 366.077C612.36 364.955 610.834 364.394 608.784 364.394C606.734 364.394 605.208 364.955 604.204 366.077C603.201 367.192 602.7 368.756 602.7 370.77Z" fill="#0033A0"/>
</g>
<defs>
<clipPath id="clip0_28_418">
<rect width="632.395" height="383" fill="white"/>
</clipPath>
</defs>
</svg>